<?xml version="1.0" encoding="utf-8"?>
<!-- Generator: Adobe Illustrator 24.3.0, SVG Export Plug-In . SVG Version: 6.00 Build 0)  -->
<svg version="1.1" id="Слой_1" xmlns="http://www.w3.org/2000/svg" xmlns:xlink="http://www.w3.org/1999/xlink" x="0px" y="0px"
	 viewBox="0 0 215.11 64.7" style="enable-background:new 0 0 215.11 64.7;" xml:space="preserve">
<style type="text/css">
	.st0{fill:url(#SVGID_1_);}
	.st1{
		fill:rgba(0, 0, 0, 0.35);
	}
	.st2{fill:none;}
	.st3{fill:url(#SVGID_2_);}
	.let{fill:rgba(255, 255, 255, 0.8);}
</style>
<linearGradient id="SVGID_1_" gradientUnits="userSpaceOnUse" x1="65.4032" y1="-5.6896" x2="5.9905" y2="59.8581">
	<stop  offset="0.23" style="stop-color:#2D4E86"/>
	<stop  offset="0.35" style="stop-color:#306FA7"/>
	<stop  offset="0.60" style="stop-color:#3499D1"/>
	<stop  offset="0.8889" style="stop-color:#36A9E1"/>
</linearGradient>
<path class="st0" d="M11.38,53.03c0,0-9.05-8.24,1.02-20.03S34.16,9.87,34.16,9.87s9.3-10.3,19.93-2.24c0,0,8.92,8.25-1.02,20.03
	S31.04,51.07,31.04,51.07S20.98,61.35,11.38,53.03z"/>
<g>
	<rect x="113.97" y="37.57" class="st2" width="155.64" height="54.25"/>
	<path class="let" d="M131.27,37.57v17.29h-3.16l-8.2-10.37v10.37h-3.71V37.57h3.16l8.2,10.42V37.57H131.27z"/>
	<path class="let" d="M134.48,46.22c0-2.55,0.85-4.68,2.54-6.37c1.71-1.71,3.93-2.57,6.65-2.57c2.7,0,4.9,0.81,6.6,2.45
		c1.73,1.63,2.59,3.8,2.59,6.5c0,2.6-0.87,4.74-2.62,6.42c-1.73,1.68-3.92,2.52-6.57,2.52c-2.68,0-4.89-0.81-6.62-2.45
		C135.33,51.09,134.48,48.92,134.48,46.22z M138.68,46.22c0,1.47,0.49,2.71,1.46,3.73c0.96,1,2.13,1.51,3.53,1.51
		c1.58,0,2.81-0.49,3.68-1.46c0.87-1,1.31-2.26,1.31-3.78c0-1.56-0.48-2.82-1.43-3.78c-0.97-0.97-2.16-1.46-3.56-1.46
		c-1.45,0-2.64,0.49-3.58,1.46C139.15,43.41,138.68,44.67,138.68,46.22z"/>
	<path class="let" d="M157.13,37.57h3.95v13.07c0,1.47-0.4,2.59-1.19,3.36c-0.79,0.77-1.92,1.16-3.38,1.16c-0.68,0-1.32-0.12-1.94-0.36
		c-0.62-0.24-1.06-0.52-1.32-0.85l1.28-3.01c0.48,0.35,0.96,0.52,1.43,0.52c0.77,0,1.16-0.51,1.16-1.53V37.57z"/>
	<path class="let" d="M176.03,54.86h-10.5V37.57h10.25v3.71h-6.3v3.04h5.56v3.71h-5.56v3.14h6.55V54.86z"/>
	<path class="let" d="M186.08,50.12c0-0.72-0.85-1.49-2.54-2.3c-0.49-0.21-0.93-0.42-1.3-0.6c-0.37-0.19-0.78-0.45-1.24-0.79
		c-0.45-0.34-0.82-0.69-1.11-1.05c-0.29-0.36-0.54-0.81-0.74-1.36s-0.3-1.13-0.28-1.75c0-1.38,0.51-2.56,1.53-3.53
		c1.02-0.97,2.37-1.46,4.05-1.46c2.21,0,3.9,0.63,5.09,1.9l-2.12,2.96c-0.48-0.44-0.89-0.75-1.25-0.91
		c-0.35-0.16-0.81-0.25-1.37-0.25c-0.54,0-0.97,0.12-1.27,0.35c-0.3,0.23-0.46,0.54-0.46,0.94c0,0.44,0.18,0.84,0.53,1.19
		s0.8,0.63,1.33,0.85c0.54,0.22,1.12,0.5,1.74,0.83c0.63,0.33,1.21,0.68,1.74,1.05c0.53,0.37,0.98,0.89,1.33,1.56
		c0.35,0.67,0.53,1.45,0.53,2.33c0,1.48-0.57,2.7-1.7,3.66c-1.1,0.96-2.51,1.43-4.22,1.43c-1.25,0-2.44-0.26-3.56-0.77
		c-1.14-0.51-1.9-1.2-2.3-2.08l2.25-2.69c0.44,0.58,1,1.03,1.68,1.35c0.67,0.32,1.35,0.48,2.03,0.48c0.51,0,0.91-0.12,1.2-0.36
		C185.93,50.86,186.08,50.53,186.08,50.12z"/>
	<path class="let" d="M196.7,41.28h-5.19v-3.71h14.33v3.71h-5.19v13.59h-3.95V41.28z"/>
</g>
<linearGradient id="SVGID_2_" gradientUnits="userSpaceOnUse" x1="116.2583" y1="28.2202" x2="201.8138" y2="-41.3843" gradientTransform="matrix(0.989 -0.1478 0.1478 0.989 -49.283 35.8364)">
	<stop  offset="0.21" style="stop-color:#338CC4"/>
	<stop  offset="0.28" style="stop-color:#359CD4"/>
	<stop  offset="0.60" style="stop-color:#36A6DE"/>
	<stop  offset="0.9313" style="stop-color:#36A9E1"/>
</linearGradient>
<path class="st3" d="M63.42,52.91c0,0-9.05-8.24,1.02-20.03S86.2,9.75,86.2,9.75s9.3-10.3,19.93-2.24c0,0,8.92,8.25-1.02,20.03
	S83.07,50.95,83.07,50.95S73.01,61.23,63.42,52.91z"/>

<path class="st1" d="M39.86,5.63c0,0,9.25-8.01,19.76,3.38s20.4,24.35,20.4,24.35s9.12,10.45-0.14,20.05c0,0-9.25,7.88-19.76-3.38
	S39.48,25.38,39.48,25.38S30.46,14.18,39.86,5.63z"/>
</svg>
